<svg width="160" height="40" viewBox="0 0 160 40" fill="none" xmlns="http://www.w3.org/2000/svg">
<path fill-rule="evenodd" clip-rule="evenodd" d="M14.2222 0C11.2536 0 7.73405 2.86667 4.83094 7.6861C1.8051 12.6774 0 18.8565 0 24.2225C0 32.078 4.38881 40 14.223 40C24.0454 40 28.446 32.078 28.446 24.2225C28.446 18.8565 26.6417 12.6774 23.6305 7.6861C20.7001 2.86667 17.1809 0 14.2222 0ZM91.0226 11.7859H100.979V37.8579H111.646V11.7859H121.598V2.14174H91.0226V11.7847V11.7859ZM144.355 11.7859H160V2.14174H144.355C129.981 2.14174 122.305 9.32006 122.305 19.9986C122.305 30.6771 129.981 37.8579 144.355 37.8579H160V28.2141H144.355C137.702 28.2141 133.33 25.8258 133.33 19.9998C133.33 14.1738 137.702 11.7859 144.355 11.7859ZM69.3265 2.14174L63.6413 23.4592L57.9562 2.14174H39.1128V37.8579H49.776V8.80739L57.5254 37.8579H69.7572L77.5108 8.78984V37.8579H88.178V2.14174H69.3265Z" fill="#212021"/>
</svg>
