<svg width="300" height="65" viewBox="0 0 300 65" fill="none" xmlns="http://www.w3.org/2000/svg">
<path d="M281.957 26.056H288.127V18.9583H293.83V26.056H300V8.31178H293.83V14.569H288.127V8.31178H281.957V26.056ZM244.282 13.3549C245.591 12.5144 247.367 11.8606 248.863 11.8606C249.611 11.8606 251.387 11.954 251.387 13.4483C251.387 14.9425 249.891 14.9425 249.33 14.9425H246.245V18.7716H248.956C249.798 18.7716 251.48 18.8649 251.48 20.2658C251.48 20.8262 251.107 21.9468 248.956 21.9468C246.806 21.9468 245.404 21.3865 243.628 20.2658L242.038 24.4684C245.404 26.4296 248.489 26.6164 249.985 26.6164C257.09 26.6164 257.931 22.5072 257.931 21.1997C257.931 19.3319 256.809 17.4641 254.379 16.8103C255.968 16.1566 256.903 14.569 256.903 12.7011C256.903 8.59195 252.509 7.75144 249.891 7.75144C247.367 7.75144 244.562 8.49856 242.693 9.52586L244.282 13.3549ZM230.913 6.0704C233.718 6.0704 236.616 4.94971 237.925 1.96121L233.905 0.466954C233.438 2.52155 231.661 2.61494 230.913 2.61494C230.165 2.61494 228.483 2.52155 228.015 0.466954L223.995 1.96121C225.117 4.94971 228.109 6.0704 230.913 6.0704ZM221.191 8.31178V25.9626H227.267L233.438 16.25V25.9626H239.608V8.31178H233.624L227.454 17.7443V8.31178H221.191ZM179.963 22.227V12.421C177.906 12.421 175.756 13.9152 175.756 17.3707C175.756 20.6394 177.906 22.227 179.963 22.227ZM185.479 12.421V22.227C187.536 22.227 189.686 20.7328 189.686 17.3707C189.686 13.9152 187.536 12.421 185.479 12.421ZM179.589 33.7141V26.3362C175.85 26.3362 169.773 24.842 169.773 17.1839C169.773 9.61925 175.85 8.03161 179.589 8.125V0.373563H185.759V8.03161C189.499 8.03161 195.575 9.52586 195.575 17.0905C195.575 24.7486 189.499 26.2428 185.759 26.2428V33.6207H179.589V33.7141ZM152.104 22.227V12.421C150.047 12.421 147.897 13.9152 147.897 17.3707C147.804 20.6394 149.954 22.227 152.104 22.227ZM157.526 12.421V22.227C159.583 22.227 161.733 20.7328 161.733 17.3707C161.733 13.9152 159.583 12.421 157.526 12.421ZM151.637 33.7141V26.3362C147.897 26.3362 141.82 24.842 141.82 17.1839C141.82 9.61925 147.897 8.03161 151.637 8.125V0.373563H157.807V8.03161C161.546 8.03161 167.623 9.52586 167.623 17.0905C167.623 24.7486 161.546 26.2428 157.807 26.2428V33.6207H151.637V33.7141ZM130.228 6.0704C133.033 6.0704 135.931 4.94971 137.24 1.96121L133.22 0.466954C132.752 2.52155 130.976 2.61494 130.228 2.61494C129.48 2.61494 127.797 2.52155 127.237 0.466954L123.217 1.96121C124.525 4.94971 127.424 6.0704 130.228 6.0704ZM120.505 8.31178V25.9626H126.489L132.659 16.25V25.9626H138.829V8.31178H132.846L126.676 17.7443V8.31178H120.505ZM82.6433 5.60345V11.4871H84.887C87.9721 11.4871 88.2526 9.61925 88.2526 8.49856C88.2526 7.28448 87.8786 5.60345 84.887 5.60345H82.6433ZM75.9123 26.056V0H86.3828C93.4878 0 95.451 5.0431 95.451 8.59195C95.451 12.1408 93.3943 17.1839 86.3828 17.1839H82.5499V26.056H75.9123ZM217.358 8.31178V25.9626H211.188V24.0014H211.094C209.972 25.7759 207.822 26.523 205.859 26.523C200.717 26.523 197.071 22.1336 197.071 17.0905C197.071 12.0474 200.624 7.65805 205.859 7.65805C207.822 7.65805 209.972 8.40517 211.281 9.99282V8.31178H217.358ZM207.355 13.1681C204.831 13.1681 203.335 15.0359 203.335 17.1839C203.335 19.4253 204.831 21.1063 207.355 21.1063C209.879 21.1063 211.375 19.3319 211.375 17.1839C211.375 15.0359 209.879 13.1681 207.355 13.1681ZM116.673 8.31178V25.9626H110.502V24.0014H110.409C109.287 25.7759 107.137 26.523 105.174 26.523C100.032 26.523 96.3859 22.1336 96.3859 17.0905C96.3859 12.0474 99.9384 7.65805 105.174 7.65805C107.137 7.65805 109.287 8.40517 110.596 9.99282V8.31178H116.673ZM106.669 13.1681C104.145 13.1681 102.65 15.0359 102.65 17.1839C102.65 19.4253 104.145 21.1063 106.669 21.1063C109.194 21.1063 110.689 19.3319 110.689 17.1839C110.689 15.0359 109.194 13.1681 106.669 13.1681ZM278.872 17.931V18.5848H265.877C265.877 21.1063 267.186 22.5072 269.71 22.5072C271.019 22.5072 271.954 22.0402 272.702 20.9195H278.685C277.657 25.1221 273.824 26.9899 269.804 26.9899C264.008 26.9899 259.707 23.7213 259.707 17.5575C259.707 11.6739 263.727 8.125 269.336 8.125C275.413 8.125 278.872 11.8606 278.872 17.931ZM265.971 14.9425H273.169C272.889 13.2615 271.3 12.1408 269.617 12.1408C267.841 12.1408 266.345 13.1681 265.971 14.9425ZM85.8219 54.2601H83.9522L83.0173 59.7701H84.7935C88.907 59.7701 89.6549 58.6494 89.9353 57.1552C90.2158 55.4741 89.8418 54.2601 85.8219 54.2601ZM97.0403 57.1552C96.7599 58.9296 96.1989 60.704 94.8901 61.9181C92.0855 64.7198 87.8786 64.9066 85.261 65H74.8839L79.2778 39.0374H97.0403L96.1989 44.1739H85.448L84.6066 49.4037H87.6916C90.0288 49.4037 92.9269 49.6839 94.9836 51.4583C96.6664 52.7658 97.5077 54.727 97.0403 57.1552ZM115.738 60.5172H105.922L103.304 65H95.7315L110.596 39.0374H118.355L124.338 65H116.766L115.738 60.5172ZM114.709 55.2874L113.214 46.9756H113.12L108.82 55.2874H114.709ZM164.07 39.0374H156.872L152.571 65H159.676L161.546 53.6997H161.64L168.932 65H178.187L168.558 51.3649L181.459 39.0374H172.671L162.294 49.7773H162.201L164.07 39.0374ZM136.585 39.0374L134.996 48.75H144.438L146.027 39.0374H152.945L148.739 65H141.82L143.597 53.7931H134.155L132.378 65H125.46L129.667 39.0374H136.585Z" fill="#212021"/>
<path d="M2.1499 2.14761H62.9163V62.8516H2.1499V2.14761Z" fill="#F5EEE4"/>
<path d="M2.1502 2.14799H62.9166V62.852H2.1502V2.14799ZM0 65H65.0668V0H0V65Z" fill="#212021"/>
<path d="M32.5358 39.8781L13.8384 58.5562L6.45293 51.1784L25.1503 32.5002L21.2238 28.5778V20.9197L18.5127 18.2114V24.9355L16.1756 27.2703L6.6399 17.8378L4.30273 20.1726C4.30273 18.3982 4.67668 13.2617 8.97708 9.05911C13.6514 4.57635 18.6997 6.63094 20.476 8.31198L30.0116 17.7445L27.581 20.1726L32.5358 25.1223L37.4906 20.1726L35.0599 17.7445L44.5956 8.21859C46.3718 6.53755 51.4201 4.48296 56.0944 8.96571C60.3948 13.2617 60.7688 18.3048 60.7688 20.0792L58.4316 17.7445L48.8959 27.2703L46.5588 24.9355V18.2114L43.8477 20.9197V28.5778L39.9212 32.5002L58.6186 51.1784L51.2331 58.5562L32.5358 39.8781Z" fill="#212021"/>
</svg>
