<svg width="300" height="46" viewBox="0 0 300 46" fill="none" xmlns="http://www.w3.org/2000/svg">
<path d="M42.3357 8.93707C43.4584 10.3497 44.4088 11.8843 45.1677 13.5103L23.6395 28.9548L14.6423 23.4659V16.8625L23.6395 22.3514L42.3357 8.93707Z" fill="#212021"/>
<path d="M5.45999 23C5.45999 22.7037 5.46741 22.4093 5.48226 22.1167L0.0296956 21.8566C0.0111369 22.2359 6.58917e-06 22.6189 6.58917e-06 23.0053C-0.00231333 26.025 0.607986 29.0153 1.79591 31.8047C2.98382 34.5943 4.72597 37.1281 6.92242 39.2608L10.7901 35.4986C9.09931 33.8598 7.75804 31.9119 6.84332 29.7669C5.92861 27.622 5.45849 25.3222 5.45999 23Z" fill="#212021"/>
<path d="M23.6328 5.31245C23.9371 5.31245 24.2396 5.32329 24.5402 5.33773L24.813 0.0294277C24.4222 0.0113661 24.0287 0.00233639 23.6328 0.00233639C20.5286 -0.00134773 17.4543 0.591746 14.5864 1.74756C11.7184 2.90338 9.11328 4.59916 6.92059 6.73752L10.7882 10.5016C12.4722 8.85556 14.4739 7.54974 16.6783 6.65921C18.8826 5.76869 21.246 5.31098 23.6328 5.31245Z" fill="#212021"/>
<path d="M23.6343 40.688C23.33 40.688 23.0274 40.688 22.725 40.6645L22.4521 45.971C22.8443 45.9902 23.2384 46 23.6343 46C26.7372 46.003 29.81 45.4096 32.6764 44.2534C35.5429 43.0973 38.1463 41.4013 40.3373 39.2629L36.4771 35.5007C34.7928 37.1459 32.7912 38.4509 30.5873 39.3411C28.3834 40.2313 26.0205 40.6891 23.6343 40.688Z" fill="#212021"/>
<path d="M33.8784 8.39868L38.4735 5.10244C34.2736 1.79257 29.0308 -0.00918782 23.6265 3.52336e-05V5.31195C27.2861 5.30753 30.8607 6.38385 33.8784 8.39868Z" fill="#212021"/>
<path d="M47.2677 23.0003C47.2707 21.6185 47.1465 20.239 46.8965 18.8787L41.8096 22.5271C41.8096 22.6843 41.8096 22.8414 41.8096 23.0003C41.8109 25.4717 41.2786 27.9157 40.2473 30.174C39.2159 32.4323 37.7083 34.4544 35.8225 36.1094L39.4916 40.056C41.9433 37.9019 43.9025 35.2705 45.2421 32.3324C46.5818 29.3942 47.2718 26.2148 47.2677 23.0003Z" fill="#212021"/>
<path d="M23.6359 40.6877C21.0963 40.6886 18.5849 40.1703 16.2641 39.1666C13.9435 38.1629 11.8652 36.696 10.1641 34.861L6.11084 38.43C8.32389 40.8164 11.0276 42.7234 14.0467 44.0275C17.0658 45.3314 20.3328 46.0033 23.6359 45.9996V40.6877Z" fill="#212021"/>
<path d="M11.4471 9.89147L7.77984 5.94501C5.32744 8.09863 3.36755 10.7299 2.02728 13.6681C0.687036 16.6063 -0.00365399 19.7858 1.45373e-05 23.0006H5.46C5.45887 20.5294 5.99126 18.0853 7.02262 15.827C8.054 13.5688 9.56136 11.5466 11.4471 9.89147Z" fill="#212021"/>
<path d="M136.388 13.153L143.15 8.35938H120.519V37.1649H143.15V32.3713H126.976V24.9927H140.774V20.1991H126.976V13.153H136.388Z" fill="#212021"/>
<path d="M105.29 19.5823H97.4332V13.1524H109.973L116.731 8.34424H90.9792V37.1498H104.459C112.017 37.1498 116.354 33.8539 116.354 28.1059C116.354 22.6071 112.426 19.5823 105.29 19.5823ZM104.169 32.3546H97.4332V24.373H104.169C108.256 24.373 110.173 25.7106 110.173 28.3639C110.173 31.017 108.134 32.3546 104.169 32.3546Z" fill="#212021"/>
<path d="M159.785 8.35449H147.465V37.1599H153.922V28.9998H159.785C167.644 28.9998 172.507 25.0203 172.507 18.6618C172.507 12.3034 167.644 8.35449 159.785 8.35449ZM159.648 24.2026H153.922V13.1518H159.648C163.783 13.1518 166.064 15.1153 166.064 18.6794C166.064 22.2434 163.783 24.2026 159.648 24.2026Z" fill="#212021"/>
<path d="M81.2875 30.3623C79.6195 31.2315 77.7507 31.6815 75.854 31.6708C70.1771 31.6708 66.0588 27.7712 66.0588 22.4014C66.0588 17.0315 70.1771 13.1234 75.854 13.1234C77.9012 13.09 79.9059 13.6873 81.5753 14.8282L86.0921 11.6275L85.7866 11.4187C83.1518 9.18979 79.6313 8.00928 75.6017 8.00928C71.2309 8.00928 67.2677 9.42418 64.4381 11.9983C63.0073 13.3237 61.8758 14.9186 61.1138 16.6836C60.352 18.4485 59.9761 20.3455 60.0099 22.2564C59.9796 24.1867 60.3538 26.1031 61.11 27.8913C61.8663 29.6794 62.9891 31.3025 64.4116 32.6638C67.2544 35.3402 71.2088 36.8147 75.5485 36.8147C80.083 36.8147 84.0463 35.2932 86.7298 32.5232L82.6868 29.6251L81.2875 30.3623Z" fill="#212021"/>
<path d="M193.099 19.5823H185.245V13.1524H202.123V8.34424H178.787V37.1498H192.25C199.807 37.1498 204.144 33.8539 204.144 28.1059C204.162 22.6071 200.234 19.5823 193.099 19.5823ZM191.977 32.3546H185.245V24.373H191.977C196.065 24.373 197.98 25.7106 197.98 28.3639C197.98 31.017 195.959 32.3546 191.977 32.3546Z" fill="#212021"/>
<path d="M277.557 37.1078H271.011V8.30225H277.557V20.4007H281.12L290.742 8.30225H298.161L286.748 22.0054L300 37.1078H291.314L281.574 25.7788H277.557V37.1078Z" fill="#212021"/>
<path d="M227.926 31.6332H214.078L211.731 37.2268H204.764L217.753 8.42139H224.718L237.495 37.2268H230.274L227.926 31.6332ZM225.758 26.4139L221.043 15.2264L216.303 26.4139H225.758Z" fill="#212021"/>
<path d="M246.311 8.42139V20.45H259.857V8.42139H266.607V37.2268H259.857V25.8765H246.311V37.2268H239.561V8.42139H246.311Z" fill="#212021"/>
</svg>
