<svg
  xmlns="http://www.w3.org/2000/svg"
  width="46"
  height="46"
  viewBox="0 0 46 46"
  fill="none"
>
  <path
    d="M42.3357 8.93707C43.4584 10.3497 44.4088 11.8843 45.1677 13.5103L23.6395 28.9548L14.6423 23.4659V16.8625L23.6395 22.3514L42.3357 8.93707Z"
    fill="#212021"
  />
  <path
    d="M5.45999 23C5.45999 22.7037 5.46741 22.4093 5.48226 22.1167L0.0296956 21.8566C0.0111369 22.2359 6.58917e-06 22.6189 6.58917e-06 23.0053C-0.00231333 26.025 0.607986 29.0153 1.79591 31.8047C2.98382 34.5943 4.72597 37.1281 6.92242 39.2608L10.7901 35.4986C9.09931 33.8598 7.75804 31.9119 6.84332 29.7669C5.92861 27.622 5.45849 25.3222 5.45999 23Z"
    fill="#212021"
  />
  <path
    d="M23.6328 5.31245C23.9371 5.31245 24.2396 5.32329 24.5402 5.33773L24.813 0.0294277C24.4222 0.0113661 24.0287 0.00233639 23.6328 0.00233639C20.5286 -0.00134773 17.4543 0.591746 14.5864 1.74756C11.7184 2.90338 9.11328 4.59916 6.92059 6.73752L10.7882 10.5016C12.4722 8.85556 14.4739 7.54974 16.6783 6.65921C18.8826 5.76869 21.246 5.31098 23.6328 5.31245Z"
    fill="#212021"
  />
  <path
    d="M23.6343 40.688C23.33 40.688 23.0274 40.688 22.725 40.6645L22.4521 45.971C22.8443 45.9902 23.2384 46 23.6343 46C26.7372 46.003 29.81 45.4096 32.6764 44.2534C35.5429 43.0973 38.1463 41.4013 40.3373 39.2629L36.4771 35.5007C34.7928 37.1459 32.7912 38.4509 30.5873 39.3411C28.3834 40.2313 26.0205 40.6891 23.6343 40.688Z"
    fill="#212021"
  />
  <path
    d="M33.8784 8.39868L38.4735 5.10244C34.2736 1.79257 29.0308 -0.00918782 23.6265 3.52336e-05V5.31195C27.2861 5.30753 30.8607 6.38385 33.8784 8.39868Z"
    fill="#212021"
  />
  <path
    d="M47.2677 23.0003C47.2707 21.6185 47.1465 20.239 46.8965 18.8787L41.8096 22.5271C41.8096 22.6843 41.8096 22.8414 41.8096 23.0003C41.8109 25.4717 41.2786 27.9157 40.2473 30.174C39.2159 32.4323 37.7083 34.4544 35.8225 36.1094L39.4916 40.056C41.9433 37.9019 43.9025 35.2705 45.2421 32.3324C46.5818 29.3942 47.2718 26.2148 47.2677 23.0003Z"
    fill="#212021"
  />
  <path
    d="M23.6359 40.6877C21.0963 40.6886 18.5849 40.1703 16.2641 39.1666C13.9435 38.1629 11.8652 36.696 10.1641 34.861L6.11084 38.43C8.32389 40.8164 11.0276 42.7234 14.0467 44.0275C17.0658 45.3314 20.3328 46.0033 23.6359 45.9996V40.6877Z"
    fill="#212021"
  />
  <path
    d="M11.4471 9.89147L7.77984 5.94501C5.32744 8.09863 3.36755 10.7299 2.02728 13.6681C0.687036 16.6063 -0.00365399 19.7858 1.45373e-05 23.0006H5.46C5.45887 20.5294 5.99126 18.0853 7.02262 15.827C8.054 13.5688 9.56136 11.5466 11.4471 9.89147Z"
    fill="#212021"
  />
</svg>
