<svg width="155" height="45" viewBox="0 0 155 45" fill="none" xmlns="http://www.w3.org/2000/svg">
<path d="M148.184 39.1671C151.232 39.1671 153.393 38.6104 155 37.4443V32.0558C153.337 33.2219 151.342 33.9447 148.571 33.9447C143.862 33.9447 141.922 30.2776 141.922 24.4999C141.922 18.4439 144.305 15.3334 148.628 15.3334C151.176 15.3334 153.67 16.2225 155 17.0562V11.4447C153.615 10.6664 151.176 10.1111 147.906 10.1111C139.484 10.1111 135.105 16.1671 135.105 24.6661C135.105 34.0001 139.372 39.1671 148.184 39.1671ZM106.954 36.7214V31.3329C104.904 32.7219 101.469 33.9447 98.254 33.9447C93.4314 33.9447 91.6038 31.6666 91.3261 26.9996H107.23V23.5C107.23 13.7782 102.963 10.1111 96.3697 10.1111C88.334 10.1111 84.5088 16.2779 84.5088 24.7215C84.5088 34.4447 89.2761 39.1657 97.6987 39.1657C101.911 39.1657 105.015 38.0551 106.954 36.7214ZM46.55 10.6664V21.7219H37.738V10.6664H31.1444V38.6104H37.738V26.9456H46.55V38.6118H53.145V10.6691H46.55V10.6664ZM82.9036 33.3908H79.9653V10.6664H60.7373V13.0553C60.7373 19.8883 60.2952 28.7224 57.9675 33.3894H55.9161V45.0002H62.0123V38.6104H76.8087V45.0002H82.9049V33.3894L82.9036 33.3908ZM128.013 38.6118H135.493L124.909 23.5568L134.219 10.6678H127.569L118.258 23.5568V10.6678H111.665V38.6118H118.258V24.8891L128.013 38.6104V38.6118ZM96.2578 15.3348C99.5277 15.3348 100.525 18.0574 100.525 21.557V22.1124H91.3261C91.4933 17.6669 93.0999 15.3348 96.2592 15.3348H96.2578ZM73.3718 33.3908H64.061C65.89 29.1683 66.3887 21.557 66.3887 16.7238V15.8901H73.3704V33.3908H73.3718Z" fill="#212021"/>
<path d="M25.6019 38.6103H18.8965V5.22236H15.9043C10.4187 5.22236 7.53704 7.99905 7.53704 12.1107C7.53704 16.7764 9.53182 18.9437 13.6319 21.7217L17.0122 23.9999L7.25938 38.6103H0L8.75547 25.5551C3.71326 21.9433 0.886869 18.4438 0.886869 12.4999C0.886869 5.0548 6.04095 0 15.8491 0H25.6019V38.6103Z" fill="#212021"/>
</svg>
