<?xml version="1.0" encoding="utf-8"?>
<!-- Generator: Adobe Illustrator 24.3.0, SVG Export Plug-In . SVG Version: 6.00 Build 0)  -->
<svg version="1.1" id="Layer_1" xmlns="http://www.w3.org/2000/svg" xmlns:xlink="http://www.w3.org/1999/xlink" x="0px" y="0px"
	 viewBox="0 0 96 24" style="enable-background:new 0 0 96 24;" xml:space="preserve">
<style type="text/css">
	.st0{fill-rule:evenodd;clip-rule:evenodd;}
</style>
<path class="st0" d="M0,14.5C0,19.2,2.6,24,8.5,24c5.9,0,8.5-4.8,8.5-9.5c0-3.2-1.1-6.9-2.9-9.9C12.4,1.7,10.3,0,8.5,0
	C6.8,0,4.6,1.7,2.9,4.6C1.1,7.6,0,11.3,0,14.5z"/>
<path class="st0" d="M60.6,7.1h-6V1.3H73v5.8h-6v15.6h-6.4V7.1z"/>
<path class="st0" d="M86.6,7.1H96V1.3h-9.4C78,1.3,73.4,5.6,73.4,12S78,22.7,86.6,22.7H96v-5.8h-9.4c-4,0-6.6-1.4-6.6-4.9
	C80,8.5,82.6,7.1,86.6,7.1z"/>
<path class="st0" d="M38.2,14.1l3.4-12.8h11.3v21.4h-6.4V5.3l-4.7,17.4h-7.3L29.9,5.3l0,17.4h-6.4V1.3h11.3L38.2,14.1z"/>
</svg>
