<?xml version="1.0" encoding="utf-8"?>
<!-- Generator: Adobe Illustrator 24.3.0, SVG Export Plug-In . SVG Version: 6.00 Build 0)  -->
<svg version="1.1" id="Слой_1" xmlns="http://www.w3.org/2000/svg" xmlns:xlink="http://www.w3.org/1999/xlink" x="0px" y="0px"
	 viewBox="0 0 321 70" style="enable-background:new 0 0 321 70;" xml:space="preserve">
<desc>Created with Sketch.</desc>
<g>
	<g>
		<path d="M156.2,41.8l-1.7,10.4h-10.1l1.7-10.4h-7.4l-4.5,27.8h7.4l1.9-12h10.1l-1.9,12h7.4l4.5-27.8H156.2z M194.1,41.8h-9.4
			l-11.1,11.5h-0.1l2-11.5h-7.7l-4.6,27.8h7.6l2-12.1h0.1l7.8,12.1h9.9L180.3,55L194.1,41.8z M126.6,41.8h-8.3l-15.9,27.8h8.1
			l2.8-4.8h10.5l1.1,4.8h8.1L126.6,41.8z M116.4,59.2l4.6-8.9h0.1l1.6,8.9H116.4z M101.6,55.1c-2.2-1.9-5.3-2.2-7.8-2.2h-3.3
			l0.9-5.6h11.5l0.9-5.5h-19l-4.7,27.8h11.1c2.8-0.1,7.3-0.3,10.3-3.3c1.4-1.3,2-3.2,2.3-5.1C104.3,58.6,103.4,56.5,101.6,55.1z
			 M96.2,61.2c-0.3,1.6-1.1,2.8-5.5,2.8h-1.9l1-5.9h2C96.1,58.1,96.5,59.4,96.2,61.2z M298.3,19.2c0-6.5-3.7-10.5-10.2-10.5
			c-6,0-10.3,3.8-10.3,10.1c0,6.6,4.6,10.1,10.8,10.1c4.3,0,8.4-2,9.5-6.5h-6.4c-0.8,1.2-1.8,1.7-3.2,1.7c-2.7,0-4.1-1.5-4.1-4.2
			h13.9V19.2z M284.5,16c0.4-1.9,2-3,3.9-3c1.8,0,3.5,1.2,3.8,3H284.5z M118.3,8.9v1.8c-1.4-1.7-3.7-2.5-5.8-2.5
			c-5.6,0-9.4,4.7-9.4,10.1c0,5.4,3.9,10.1,9.4,10.1c2.1,0,4.4-0.8,5.6-2.7h0.1v2.1h6.6V8.9H118.3z M114.1,22.6
			c-2.7,0-4.3-1.8-4.3-4.2c0-2.3,1.6-4.3,4.3-4.3c2.7,0,4.3,2,4.3,4.3C118.4,20.7,116.8,22.6,114.1,22.6z M226,8.9v1.8
			c-1.4-1.7-3.7-2.5-5.8-2.5c-5.6,0-9.4,4.7-9.4,10.1c0,5.4,3.9,10.1,9.4,10.1c2.1,0,4.4-0.8,5.6-2.7h0.1v2.1h6.6V8.9H226z
			 M221.8,22.6c-2.7,0-4.3-1.8-4.3-4.2c0-2.3,1.6-4.3,4.3-4.3s4.3,2,4.3,4.3C226.1,20.7,224.5,22.6,221.8,22.6z M92.4,0H81.2v27.9
			h7.1v-9.5h4.1c7.5,0,9.7-5.4,9.7-9.2S100,0,92.4,0z M90.8,12.3h-2.4V6h2.4c3.2,0,3.6,1.8,3.6,3.1C94.4,10.3,94.1,12.3,90.8,12.3z
			 M142.1,8.9L135.5,19V8.9h-6.6v18.9h6.4l6.6-10.4v10.4h6.6V8.9H142.1z M142.5,0.5c-0.5,2.2-2.4,2.3-3.2,2.3s-2.6-0.1-3.2-2.3
			l-4.3,1.6c1.4,3.2,4.5,4.4,7.5,4.4s6.1-1.2,7.5-4.4L142.5,0.5z M168.8,8.6V0.4h-6.6v8.3c-4-0.1-10.5,1.6-10.5,9.7
			c0,8.2,6.5,9.8,10.5,9.8V36h6.6v-7.9c4,0,10.5-1.6,10.5-9.8C179.3,10.2,172.8,8.6,168.8,8.6z M162.7,23.8c-2.3,0-4.6-1.7-4.5-5.2
			c0-3.7,2.3-5.3,4.5-5.3V23.8z M168.5,23.8V13.3c2.2,0,4.5,1.6,4.5,5.3C173,22.2,170.7,23.8,168.5,23.8z M198.7,8.6V0.4h-6.6v8.3
			c-4-0.1-10.5,1.6-10.5,9.7c0,8.2,6.5,9.8,10.5,9.8V36h6.6v-7.9c4,0,10.5-1.6,10.5-9.8C209.2,10.2,202.7,8.6,198.7,8.6z
			 M192.5,23.8c-2.2,0-4.5-1.7-4.5-5.2c0-3.7,2.3-5.3,4.5-5.3V23.8z M198.4,23.8V13.3c2.2,0,4.5,1.6,4.5,5.3
			C202.9,22.2,200.6,23.8,198.4,23.8z M249.9,8.9L243.3,19V8.9h-6.7v18.9h6.5l6.6-10.4v10.4h6.6V8.9H249.9z M250.2,0.5
			c-0.5,2.2-2.4,2.3-3.2,2.3s-2.6-0.1-3.1-2.3l-4.3,1.6c1.2,3.2,4.4,4.4,7.4,4.4s6.1-1.2,7.5-4.4L250.2,0.5z M272.1,18
			c0.9-0.3,1.5-1,2-1.7c0.5-0.8,0.7-1.7,0.7-2.7c0-4.4-4.7-5.3-7.5-5.3c-2.7,0-5.7,0.8-7.7,1.9l1.7,4.1c1.4-0.9,3.3-1.6,4.9-1.6
			c0.8,0,2.7,0.1,2.7,1.7c0,1.6-1.6,1.6-2.2,1.6h-3.3v4.1h2.9c0.9,0,2.7,0.1,2.7,1.6c0,0.6-0.4,1.8-2.7,1.8s-3.8-0.6-5.7-1.8
			l-1.7,4.5c3.6,2.1,6.9,2.3,8.5,2.3c7.6,0,8.5-4.4,8.5-5.8C275.9,20.7,274.7,18.7,272.1,18z M314.3,8.9v6.7h-6.1V8.9h-6.6v19h6.6
			v-7.6h6.1v7.6h6.6v-19H314.3z"/>
	</g>
	<g>
		<path d="M42.7,34.8l20,20l-7.9,7.9l-20-20l-20,20l-7.9-7.9l20-20l-4.2-4.2v-8.2l-2.9-2.9v7.2l-2.5,2.5L7.1,19.1l-2.5,2.5
			c0-1.9,0.4-7.4,5-11.9c5-4.8,10.4-2.6,12.3-0.8L32.1,19l-2.6,2.6l5.3,5.3l5.3-5.3L37.5,19L47.7,8.8C49.6,7,55,4.8,60,9.6
			c4.6,4.6,5,10,5,11.9L62.5,19L52.3,29.2l-2.5-2.5v-7.2l-2.9,2.9v8.2L42.7,34.8z"/>
		<path d="M0,0v69.6h69.6V0H0z M67.3,67.3h-65v-65h65V67.3z"/>
		<g>
			<path d="M42.7,34.8l20,20l-7.9,7.9l-20-20l-20,20l-7.9-7.9l20-20l-4.2-4.2v-8.2l-2.9-2.9v7.2l-2.5,2.5L7.1,19.1l-2.5,2.5
				c0-1.9,0.4-7.4,5-11.9c5-4.8,10.4-2.6,12.3-0.8L32.1,19l-2.6,2.6l5.3,5.3l5.3-5.3L37.5,19L47.7,8.8C49.6,7,55,4.8,60,9.6
				c4.6,4.6,5,10,5,11.9L62.5,19L52.3,29.2l-2.5-2.5v-7.2l-2.9,2.9v8.2L42.7,34.8z"/>
		</g>
	</g>
</g>
</svg>
