<?xml version="1.0" encoding="utf-8"?>
<!-- Generator: Adobe Illustrator 24.3.0, SVG Export Plug-In . SVG Version: 6.00 Build 0)  -->
<svg version="1.1" id="Layer_1" xmlns="http://www.w3.org/2000/svg" xmlns:xlink="http://www.w3.org/1999/xlink" x="0px" y="0px"
	 viewBox="0 0 210 33" style="enable-background:new 0 0 210 33;" xml:space="preserve">
<path d="M28.9,6.4c0.8,1,1.4,2.1,1.9,3.3l-14.7,11L10,16.7V12l6.1,3.9L28.9,6.4z"/>
<path d="M32.3,16.3c0,2.3-0.5,4.6-1.4,6.6c-0.8,1.9-1.9,3.5-3.4,4.9c-0.2,0.2-0.4,0.4-0.6,0.6c-1.4,1.3-2.9,2.3-4.7,3
	c-2,0.8-4,1.2-6.2,1.2c-0.3,0-0.5,0-0.8,0c-2-0.1-3.9-0.6-5.7-1.4c-1.8-0.8-3.5-2-4.9-3.4c-0.2-0.2-0.4-0.4-0.6-0.6
	c-1.2-1.4-2.2-3-2.9-4.7c-0.8-2-1.2-4.1-1.2-6.3v0c0-0.3,0-0.5,0-0.8c0.1-2,0.6-4,1.4-5.8c0.8-1.8,2-3.5,3.3-4.9
	c0.2-0.2,0.4-0.4,0.6-0.6C6.7,3,8.2,2,10,1.2c2-0.8,4-1.2,6.2-1.2h0c0.3,0,0.5,0,0.8,0c3.4,0.2,6.7,1.4,9.3,3.6L23.1,6
	c-1.9-1.3-4.1-2.1-6.4-2.2c-0.2,0-0.4,0-0.6,0c-1.6,0-3.2,0.3-4.7,1C10.1,5.3,8.9,6.1,7.8,7C7.7,7.2,7.5,7.3,7.4,7.5
	c-1.1,1.1-2,2.4-2.6,3.8c-0.7,1.6-1.1,3.3-1.1,5.1c0,1.7,0.3,3.3,0.9,4.8c0.6,1.5,1.5,2.9,2.7,4.1c1.1,1.1,2.3,2,3.7,2.6
	c1.6,0.7,3.3,1.1,5,1.1c1.6,0,3.2-0.3,4.8-1c1.3-0.5,2.5-1.3,3.6-2.3c0.1-0.1,0.3-0.3,0.4-0.4c1.1-1.1,2-2.4,2.6-3.8
	c0.7-1.6,1.1-3.4,1.1-5.1V16l3.5-2.6C32.2,14.4,32.3,15.4,32.3,16.3z"/>
<path d="M93.1,9.4l4.6-3.4H82.3v20.5h15.5V23h-11v-5.2h9.4v-3.4h-9.4v-5H93.1z"/>
<path d="M71.9,13.9h-5.4V9.4h8.6l4.6-3.4H62.1v20.5h9.2c5.2,0,8.1-2.3,8.1-6.4C79.4,16.1,76.8,13.9,71.9,13.9z M71.1,23h-4.6v-5.7
	h4.6c2.8,0,4.1,1,4.1,2.8C75.2,22.1,73.8,23,71.1,23z"/>
<path d="M109.1,5.9h-8.4v20.5h4.4v-5.8h4c5.4,0,8.7-2.8,8.7-7.4C117.8,8.7,114.5,5.9,109.1,5.9z M109,17.2h-3.9V9.4h3.9
	c2.8,0,4.4,1.4,4.4,3.9S111.8,17.2,109,17.2z"/>
<path d="M55.5,21.6c-1.1,0.6-2.4,0.9-3.7,0.9c-3.9,0-6.7-2.8-6.7-6.6c0-3.8,2.8-6.6,6.7-6.6c1.4,0,2.8,0.4,3.9,1.2l3.1-2.3l-0.2-0.1
	c-1.8-1.6-4.2-2.4-7-2.4c-3,0-5.7,1-7.6,2.8c-1,0.9-1.7,2.1-2.3,3.3c-0.5,1.3-0.8,2.6-0.8,4c0,1.4,0.2,2.7,0.8,4
	c0.5,1.3,1.3,2.4,2.3,3.4c1.9,1.9,4.6,3,7.6,3c3.1,0,5.8-1.1,7.6-3.1l-2.8-2.1L55.5,21.6z"/>
<path d="M135.3,13.9h-5.4V9.4h11.5V5.9h-15.9v20.5h9.2c5.2,0,8.1-2.3,8.1-6.4C142.8,16.1,140.1,13.9,135.3,13.9z M134.5,23h-4.6
	v-5.7h4.6c2.8,0,4.1,1,4.1,2.8C138.6,22.1,137.2,23,134.5,23z"/>
<path d="M192.9,26.4h-4.5V5.9h4.5v8.6h2.4l6.6-8.6h5.1l-7.8,9.7l9,10.7h-5.9l-6.7-8.1h-2.7V26.4z"/>
<path d="M159.1,22.5h-9.5l-1.6,4h-4.8L152.1,6h4.8l8.7,20.5h-4.9L159.1,22.5z M157.6,18.8l-3.2-8l-3.2,8H157.6z"/>
<path d="M171.6,6v8.6h9.2V6h4.6v20.5h-4.6v-8.1h-9.2v8.1H167V6H171.6z"/>
</svg>
