<svg id="Layer_1" data-name="Layer 1" xmlns="http://www.w3.org/2000/svg" viewBox="0 0 160 40"><defs><style>.cls-1{fill-rule:evenodd;}</style></defs><path class="cls-1" d="M14.22,0c-3,0-6.49,2.87-9.39,7.69A33.47,33.47,0,0,0,0,24.22C0,32.08,4.39,40,14.22,40s14.23-7.92,14.23-15.78A33.56,33.56,0,0,0,23.63,7.69C20.7,2.87,17.18,0,14.22,0Z"/><polygon class="cls-1" points="91.02 11.79 100.98 11.79 100.98 37.86 111.65 37.86 111.65 11.79 121.6 11.79 121.6 2.14 91.02 2.14 91.02 11.79 91.02 11.79"/><path class="cls-1" d="M144.35,11.79H160V2.14H144.35c-14.37,0-22,7.18-22,17.86s7.67,17.86,22,17.86H160V28.21H144.35c-6.65,0-11-2.38-11-8.21S137.7,11.79,144.35,11.79Z"/><polygon class="cls-1" points="69.33 2.14 63.64 23.46 57.96 2.14 39.11 2.14 39.11 37.86 49.78 37.86 49.78 8.81 57.52 37.86 69.76 37.86 77.51 8.79 77.51 37.86 88.18 37.86 88.18 2.14 69.33 2.14"/></svg>