<svg id="Layer_1" data-name="Layer 1" xmlns="http://www.w3.org/2000/svg" viewBox="0 0 160 40">
<defs>
<style>.cls-1{fill:none;fill-rule:evenodd;}</style>
</defs>
<path class="cls-1" d="M14.22,0c-3,0-6.49,2.87-9.39,7.69A33.47,33.47,0,0,0,0,24.22C0,32.08,4.39,40,14.22,40s14.23-7.92,14.23-15.78A33.56,33.56,0,0,0,23.63,7.69C20.7,2.87,17.18,0,14.22,0ZM91,11.79h10V37.86h10.67V11.79h9.95V2.14H91v9.64Zm53.33,0H160V2.14H144.35c-14.37,0-22,7.18-22,17.86s7.67,17.86,22,17.86H160V28.21H144.35c-6.65,0-11-2.38-11-8.21S137.7,11.79,144.35,11.79Zm-75-9.65L63.64,23.46,58,2.14H39.11V37.86H49.78v-29l7.75,29.05H69.76L77.51,8.79V37.86H88.18V2.14Z"/>
</svg>